# xmcd CD database file generated by OrangeCD 5.2
#
# Track frame offsets:
#	150
#	41925
#	116400
#	147750
#	198762
#	222450
#	233100
#	266850
#
# Disc length: 3910 seconds
#
# Revision: 0
# Processed by: cddbd v1.5.1PL0 Copyright (c) Steve Scherf et al.
# Submitted via: OrangeCD 5.2
#
DISCID=780f4408
DTITLE=Clapton, Eric - Madison Square Garden, NYC 6/29/2004
DYEAR=2004
DGENRE=Blues
TTITLE0=Got to Get Better In A Little While
TTITLE1=Have You Ever Loved A Woman
TTITLE2=Badge
TTITLE3=Wonderful Tonight - Layla
TTITLE4=Cocaine
TTITLE5=Encore
TTITLE6=Sunshine Of Your Love
TTITLE7=Got My Mojo Working
EXTD=
EXTT0=
EXTT1=
EXTT2=
EXTT3=
EXTT4=
EXTT5=
EXTT6=
EXTT7=
PLAYORDER=
